<?xml version="1.0" encoding="utf-8"?>
<!-- Generator: Adobe Illustrator 22.1.0, SVG Export Plug-In . SVG Version: 6.00 Build 0)  -->
<svg version="1.1" id="Layer_1" xmlns="http://www.w3.org/2000/svg" xmlns:xlink="http://www.w3.org/1999/xlink" x="0px" y="0px"
	 viewBox="0 0 154.6 109" style="enable-background:new 0 0 154.6 109;" xml:space="preserve">
<style type="text/css">
	.st0{fill:#4D2A18;}
</style>
<g>
	<g>
		<path class="st0" d="M0,93.8c0-0.7,0.2-1.3,0.7-1.8c0.5-0.6,1.1-1,1.9-1.3s1.6-0.5,2.6-0.5c0.9,0,1.8,0.2,2.6,0.5
			C8.5,91,9.1,91.4,9.6,92s0.7,1.2,0.7,1.8v2.3H6.7v-2.5c0-0.3-0.2-0.6-0.5-0.8c-0.3-0.2-0.7-0.3-1.1-0.3S4.3,92.6,4,92.8
			c-0.3,0.2-0.5,0.5-0.5,0.8v12c0,0.3,0.2,0.6,0.5,0.8c0.3,0.2,0.7,0.3,1.1,0.3s0.8-0.1,1.1-0.3c0.3-0.2,0.5-0.5,0.5-0.8v-4.1H5.3
			v-2.3h5v6.2c0,0.7-0.2,1.3-0.7,1.8c-0.5,0.6-1.1,1-1.9,1.3S6.1,109,5.1,109c-0.9,0-1.8-0.2-2.6-0.5s-1.4-0.8-1.9-1.3
			c-0.5-0.6-0.7-1.2-0.7-1.8L0,93.8L0,93.8z"/>
		<path class="st0" d="M16.1,108.5c-0.8-0.3-1.4-0.8-1.9-1.3c-0.5-0.6-0.7-1.2-0.7-1.8v-15H17v15.1c0,0.3,0.2,0.6,0.5,0.8
			c0.3,0.2,0.7,0.3,1.1,0.3s0.8-0.1,1.1-0.3c0.3-0.2,0.5-0.5,0.5-0.8V90.4h3.5v15c0,0.7-0.2,1.3-0.7,1.8c-0.5,0.6-1.1,1-1.9,1.3
			s-1.6,0.5-2.6,0.5C17.7,109,16.9,108.9,16.1,108.5z"/>
		<path class="st0" d="M27.5,90.4h5.1c0.9,0,1.8,0.2,2.6,0.5s1.4,0.8,1.9,1.3c0.5,0.6,0.7,1.2,0.7,1.8v2.6c0,0.7-0.2,1.3-0.6,1.7
			c-0.4,0.4-0.9,0.8-1.5,1v0.1c0.6,0.2,1.1,0.5,1.5,1c0.4,0.4,0.6,1,0.6,1.7v5.5c0,0.5,0.1,0.9,0.4,1.3h-3.5
			c-0.2-0.2-0.4-0.6-0.4-1.3v-5.9c0-0.3-0.2-0.6-0.5-0.8c-0.3-0.2-0.7-0.3-1.1-0.3H31v8.3h-3.5V90.4z M32.6,98.2
			c0.4,0,0.8-0.1,1.1-0.3c0.3-0.2,0.5-0.5,0.5-0.8v-3.2c0-0.3-0.2-0.6-0.5-0.8c-0.3-0.2-0.7-0.3-1.1-0.3H31v5.4
			C31,98.2,32.6,98.2,32.6,98.2z"/>
		<path class="st0" d="M42.2,90.4h3.5v18.3h-3.5V90.4z"/>
		<path class="st0" d="M57.7,103.9h-4.2l-1.1,4.9l-3.7-0.1l5.1-18.5h3.7l5.1,18.5l-3.7,0.1L57.7,103.9z M57.2,101.5l-1.4-6.3
			c-0.1-0.3-0.1-0.7-0.1-1.4h-0.1c0,0.7,0,1.1-0.1,1.4l-1.4,6.3H57.2z"/>
		<path class="st0" d="M65.1,90.4h3.5l4.6,10.5c0.1,0.4,0.3,0.8,0.4,1.3s0.2,0.8,0.2,1l0.2,1h0.1c-0.3-1.3-0.4-2.7-0.4-4.2v-9.6h3.4
			v18.3h-3.5L69,98.2c-0.2-0.6-0.4-1.3-0.6-2.2l-0.3-1H68c0.3,1.3,0.4,2.7,0.4,4.2v9.6H65L65.1,90.4L65.1,90.4z"/>
		<path class="st0" d="M85.2,90.4h3.7l2,10.8c0.2,1.2,0.3,2.3,0.3,3.4h0.1c0-1.1,0.1-2.2,0.3-3.4l2.2-10.8h2.9l2.2,10.8
			c0.2,1,0.3,2.1,0.3,3.4h0.1c0-0.9,0.1-2,0.3-3.4l2-10.8h3.7l-4.3,18.3h-3.2l-2.3-10.4c-0.1-0.6-0.2-1.9-0.2-3.9h-0.1
			c0,0.7,0,1.4-0.1,2.2c0,0.8-0.1,1.3-0.2,1.7l-2.3,10.4h-3.2L85.2,90.4z"/>
		<path class="st0" d="M108.2,90.4h3.5v18.3h-3.5V90.4z"/>
		<path class="st0" d="M116.2,90.4h3.5l4.6,10.5c0.1,0.4,0.3,0.8,0.4,1.3s0.2,0.8,0.2,1l0.2,1h0.1c-0.3-1.3-0.4-2.7-0.4-4.2v-9.6
			h3.4v18.3h-3.5l-4.6-10.5c-0.2-0.6-0.4-1.3-0.6-2.2l-0.3-1.1h-0.1c0.3,1.3,0.4,2.7,0.4,4.2v9.6h-3.4V90.4H116.2z"/>
		<path class="st0" d="M132.2,90.4h9.5v2.3h-6v5.4h4.5v2.3h-4.5v5.9h6v2.3h-9.5V90.4z"/>
		<path class="st0" d="M144.3,102.6h3.5v3c0,0.3,0.2,0.6,0.5,0.8c0.3,0.2,0.7,0.3,1.1,0.3c0.4,0,0.8-0.1,1.1-0.3
			c0.3-0.2,0.5-0.5,0.5-0.8v-2.7c0-0.5-0.3-1-0.8-1.5s-1.3-1-2.3-1.7c-1.2-0.8-2.1-1.5-2.7-2.1c-0.6-0.6-0.9-1.3-0.9-2v-1.9
			c0-0.7,0.2-1.3,0.7-1.8c0.5-0.6,1.1-1,1.9-1.3c0.8-0.3,1.6-0.5,2.6-0.5c0.9,0,1.8,0.2,2.6,0.5s1.4,0.8,1.9,1.3
			c0.5,0.6,0.7,1.2,0.7,1.8V96H151v-2.5c0-0.3-0.2-0.6-0.5-0.8c-0.3-0.2-0.7-0.3-1.1-0.3c-0.4,0-0.8,0.1-1.1,0.3
			c-0.3,0.2-0.5,0.5-0.5,0.8v1.9c0,0.5,0.3,1,0.8,1.5s1.3,1,2.3,1.7c1.2,0.8,2.1,1.5,2.7,2.1c0.6,0.6,0.9,1.3,0.9,2v2.6
			c0,0.7-0.2,1.3-0.7,1.8c-0.5,0.6-1.1,1-1.9,1.3c-0.8,0.3-1.6,0.5-2.6,0.5c-0.9,0-1.8-0.2-2.6-0.5s-1.4-0.8-1.9-1.3
			c-0.5-0.6-0.7-1.2-0.7-1.8v-2.7H144.3z"/>
	</g>
	<g>
		<path class="st0" d="M47.8,9.1c5.9,13.2,1.2,9.6,6.7,20.5c8.6,17.1,23.9,16.1,29.4,13.9c4.7-1.9,5.2-3.1-0.3-3.3
			c-12.4-0.5-19.4-13-20.7-17.3c-0.9-2.9,0.6-3.4,1.5-1.3c1.1,2.7,0.3,1.1,2.2,5.1c0.4,0.9,2.8,5,5.8,7.2c9.6,7.1,19.2,4.3,23.9,3.4
			c6.8-1.4,20.9,4.8,24.2,5.9c3.3,1.2,5.4,1.4,6.7,1c1.3-0.5,2.2-1,2.7-1.5c0.2-0.3-33.3-14.6-45.3-22.4C69.3,10.4,68.3,3.3,61.2,1
			c-8.3-2.8-14.5,2-14.5,2c-1.5-1-4.9,1-4.9,1C44.5,4.1,47,7.5,47.8,9.1z M53.1,4.2c1.4-0.3,2.8,0.6,3.1,2S55.7,9,54.3,9.3
			s-2.8-0.6-3.1-2C50.9,5.9,51.7,4.5,53.1,4.2z"/>
		<path class="st0" d="M134.4,58.5c-2-0.5-3.7-0.8-5.3-0.9c-9.1-10.8-21.7-7.9-26.9-6.1l1.1,3.2c4.1-1.4,13.6-3.6,21.1,3
			c-6,1-8.3,4.9-9,7c-1.8,5,0,11.3,4,13.2c3.7,1.8,8.7,0.5,11.7-3.1c3.1-3.7,3.3-8.6,0.7-13.5c0.6,0.1,1.2,0.3,1.8,0.4
			c12.7,3.2,11.4,17,11.3,17.6l3.4,0.4C148.4,79.6,150,62.4,134.4,58.5z M128.5,72.7c-2,2.4-5.3,3.3-7.6,2.2c-2.1-1-3.6-5.4-2.2-9
			c1.2-3.3,4.3-5,8.8-5c0.1,0.1,0.2,0.3,0.3,0.4C130.7,65.6,131,69.7,128.5,72.7z"/>
		<ellipse class="st0" cx="58" cy="71.4" rx="7.9" ry="7.9"/>
		<ellipse class="st0" cx="79.4" cy="71.4" rx="7.9" ry="7.9"/>
		<ellipse class="st0" cx="100.7" cy="71.4" rx="7.9" ry="7.9"/>
		<ellipse class="st0" cx="68.7" cy="54.5" rx="7.9" ry="7.9"/>
		<ellipse class="st0" cx="90.1" cy="54.5" rx="7.9" ry="7.9"/>
		<path class="st0" d="M33,55.8c3.5,3.9,11.2,6,14.2,6.7c11.9-6.8,4.7-18.9,4.7-18.9L48,45.4c-0.1-0.2-0.2-0.5-0.2-0.7
			C44.2,34.3,31,32,31,32c-0.8,7.1,2,13,2,13c-9-5-26.7-0.4-26.7-0.4C12,57.5,23.7,63.9,23.7,63.9c-3.9,0.9-10.1,8.8-10.1,8.8
			c12.5,6.4,20.7,2.6,20.7,2.6s0.6,4.5,2.5,4c12.8-3.5,10.3-12.7,9.2-15.4c-3.6-0.9-10.8-3.1-14.3-7.1c-0.3-0.4-0.3-1,0.1-1.3
			C32,55.4,32.6,55.4,33,55.8z"/>
	</g>
</g>
</svg>
